<svg width="1200" height="750" viewBox="0 0 1200 750" xmlns="http://www.w3.org/2000/svg" font-family="Georgia, serif">
  <!-- Browser chrome -->
  <rect width="1200" height="750" rx="12" fill="#1a1a1a"/>
  <rect width="1200" height="44" rx="12" fill="#2d2d2d"/>
  <rect y="32" width="1200" height="12" fill="#2d2d2d"/>
  <circle cx="20" cy="22" r="7" fill="#ff5f57"/>
  <circle cx="44" cy="22" r="7" fill="#febc2e"/>
  <circle cx="68" cy="22" r="7" fill="#28c840"/>
  <rect x="120" y="10" width="760" height="24" rx="12" fill="#3a3a3a"/>
  <text x="500" y="26" text-anchor="middle" fill="#888" font-size="12" font-family="Arial">velour-studio.it</text>

  <!-- Page background -->
  <rect x="0" y="44" width="1200" height="706" fill="#f5f0eb"/>

  <defs>
    <linearGradient id="fadeLeft" x1="0%" y1="0%" x2="100%" y2="0%">
      <stop offset="0%" style="stop-color:#f5f0eb;stop-opacity:1"/>
      <stop offset="100%" style="stop-color:#f5f0eb;stop-opacity:0"/>
    </linearGradient>
  </defs>

  <!-- Nav -->
  <rect x="0" y="44" width="1200" height="60" fill="#f5f0eb"/>
  <text x="600" y="83" text-anchor="middle" fill="#1a1a1a" font-size="22" letter-spacing="12" font-family="Arial" font-weight="300">VELOUR</text>
  <text x="100" y="80" fill="#888" font-size="11" letter-spacing="3" font-family="Arial">COLLEZIONE</text>
  <text x="260" y="80" fill="#888" font-size="11" letter-spacing="3" font-family="Arial">ATELIER</text>
  <text x="820" y="80" fill="#888" font-size="11" letter-spacing="3" font-family="Arial">LOOKBOOK</text>
  <text x="980" y="80" fill="#888" font-size="11" letter-spacing="3" font-family="Arial">CONTATTI</text>
  <!-- thin line under nav -->
  <rect x="0" y="104" width="1200" height="1" fill="#ddd"/>

  <!-- Left editorial text -->
  <text x="60" y="200" fill="#bbb" font-size="11" letter-spacing="5" font-family="Arial">PRIMAVERA — ESTATE 2025</text>
  <text x="55" y="290" fill="#1a1a1a" font-size="64" font-weight="300" letter-spacing="-1">Silhouette</text>
  <text x="55" y="360" fill="#1a1a1a" font-size="64" font-weight="300" letter-spacing="-1">che parlano.</text>

  <rect x="60" y="390" width="40" height="2" fill="#1a1a1a"/>

  <text x="60" y="440" fill="#666" font-size="14" letter-spacing="1" font-family="Arial">Moda contemporanea italiana.</text>
  <text x="60" y="465" fill="#666" font-size="14" letter-spacing="1" font-family="Arial">Ogni capo è un'opera artigianale.</text>

  <rect x="60" y="510" width="150" height="46" fill="#1a1a1a"/>
  <text x="135" y="539" text-anchor="middle" fill="white" font-size="11" letter-spacing="3" font-family="Arial">ESPLORA</text>
  <rect x="230" y="510" width="150" height="46" fill="none" stroke="#ccc" stroke-width="1"/>
  <text x="305" y="539" text-anchor="middle" fill="#888" font-size="11" letter-spacing="3" font-family="Arial">LOOKBOOK</text>

  <!-- Right image panels -->
  <rect x="560" y="110" width="260" height="580" fill="#e8e0d5"/>
  <rect x="840" y="110" width="320" height="280" fill="#d4c9bc"/>
  <rect x="840" y="410" width="320" height="280" fill="#1a1a1a"/>

  <!-- Fashion figure silhouette (simple) -->
  <!-- Main figure center panel -->
  <ellipse cx="690" cy="195" rx="30" ry="35" fill="#c4b8ac"/>
  <rect x="665" y="225" width="50" height="120" rx="4" fill="#b8a898"/>
  <rect x="655" y="345" width="30" height="130" rx="4" fill="#a89888"/>
  <rect x="695" y="345" width="30" height="130" rx="4" fill="#a89888"/>
  <!-- Dress overlay -->
  <path d="M660 240 Q690 260 720 240 L730 420 Q690 440 650 420 Z" fill="#c8bab0" opacity="0.6"/>

  <!-- Right top panel text -->
  <text x="860" y="200" fill="#888" font-size="10" letter-spacing="4" font-family="Arial">ESCLUSIVA</text>
  <text x="855" y="250" fill="#444" font-size="28" font-weight="300">Lana</text>
  <text x="855" y="285" fill="#444" font-size="28" font-weight="300">Merino</text>
  <text x="860" y="330" fill="#999" font-size="12" letter-spacing="1" font-family="Arial">€ 480</text>

  <!-- Right bottom dark panel -->
  <text x="860" y="480" fill="#666" font-size="10" letter-spacing="4" font-family="Arial">NUOVA STAGIONE</text>
  <text x="855" y="530" fill="white" font-size="28" font-weight="300">Seta &amp;</text>
  <text x="855" y="565" fill="white" font-size="28" font-weight="300">Cashmere</text>
  <rect x="860" y="600" width="120" height="36" fill="white"/>
  <text x="920" y="623" text-anchor="middle" fill="#1a1a1a" font-size="10" letter-spacing="3" font-family="Arial">SCOPRI</text>

  <!-- Bottom strip -->
  <rect x="0" y="680" width="1200" height="70" fill="#1a1a1a"/>
  <text x="200" y="720" text-anchor="middle" fill="#444" font-size="10" letter-spacing="3" font-family="Arial">ARTIGIANALE</text>
  <text x="460" y="720" text-anchor="middle" fill="#444" font-size="10" letter-spacing="3" font-family="Arial">SOSTENIBILE</text>
  <text x="720" y="720" text-anchor="middle" fill="#444" font-size="10" letter-spacing="3" font-family="Arial">MADE IN ITALY</text>
  <text x="980" y="720" text-anchor="middle" fill="#444" font-size="10" letter-spacing="3" font-family="Arial">SPEDIZIONE GRATUITA</text>
</svg>
