<svg width="1200" height="750" viewBox="0 0 1200 750" xmlns="http://www.w3.org/2000/svg" font-family="Arial, sans-serif">
  <!-- Browser chrome -->
  <rect width="1200" height="750" rx="12" fill="#1a1a1a"/>
  <rect width="1200" height="44" rx="12" fill="#2d2d2d"/>
  <rect y="32" width="1200" height="12" fill="#2d2d2d"/>
  <circle cx="20" cy="22" r="7" fill="#ff5f57"/>
  <circle cx="44" cy="22" r="7" fill="#febc2e"/>
  <circle cx="68" cy="22" r="7" fill="#28c840"/>
  <rect x="120" y="10" width="760" height="24" rx="12" fill="#3a3a3a"/>
  <text x="500" y="26" text-anchor="middle" fill="#888" font-size="12">ironbunker.it</text>

  <!-- Page background -->
  <rect x="0" y="44" width="1200" height="706" fill="#0e0e0b"/>

  <defs>
    <linearGradient id="militaryGrad" x1="0%" y1="0%" x2="100%" y2="100%">
      <stop offset="0%" style="stop-color:#0e0e0b"/>
      <stop offset="60%" style="stop-color:#111a0a"/>
      <stop offset="100%" style="stop-color:#0e0e0b"/>
    </linearGradient>
    <pattern id="grid" width="40" height="40" patternUnits="userSpaceOnUse">
      <path d="M 40 0 L 0 0 0 40" fill="none" stroke="#1a2210" stroke-width="0.5"/>
    </pattern>
  </defs>

  <rect x="0" y="44" width="1200" height="706" fill="url(#militaryGrad)"/>
  <rect x="0" y="44" width="1200" height="706" fill="url(#grid)"/>

  <!-- Nav -->
  <rect x="0" y="44" width="1200" height="58" fill="#0a0d07" opacity="0.98"/>
  <rect x="0" y="102" width="1200" height="1" fill="#2a3a1a"/>

  <rect x="40" y="56" width="120" height="34" fill="#3a5a1a"/>
  <text x="100" y="78" text-anchor="middle" fill="#c8e88a" font-size="14" font-weight="900" letter-spacing="4">IRON</text>
  <rect x="168" y="63" width="2" height="20" fill="#3a5a1a"/>
  <text x="185" y="78" fill="#3a5a1a" font-size="14" font-weight="900" letter-spacing="4">BUNKER</text>

  <text x="460" y="78" fill="#3a5a1a" font-size="11" letter-spacing="3">TRAINING</text>
  <text x="580" y="78" fill="#3a5a1a" font-size="11" letter-spacing="3">NUTRITION</text>
  <text x="720" y="78" fill="#3a5a1a" font-size="11" letter-spacing="3">SQUADRA</text>
  <text x="860" y="78" fill="#3a5a1a" font-size="11" letter-spacing="3">CONTATTI</text>
  <rect x="1040" y="58" width="120" height="34" fill="none" stroke="#3a5a1a" stroke-width="1"/>
  <text x="1100" y="80" text-anchor="middle" fill="#c8e88a" font-size="11" letter-spacing="2">ARRUOLATI</text>

  <!-- Hero left -->
  <text x="60" y="185" fill="#3a5a1a" font-size="10" letter-spacing="6">// UNITÀ DI ÉLITE — BERGAMO</text>

  <text x="55" y="265" fill="#c8e88a" font-size="78" font-weight="900" letter-spacing="-3">NO</text>
  <text x="55" y="350" fill="#c8e88a" font-size="78" font-weight="900" letter-spacing="-3">PAIN.</text>
  <text x="55" y="435" fill="#ffffff" font-size="78" font-weight="900" letter-spacing="-3">NO</text>
  <text x="55" y="520" fill="#ffffff" font-size="78" font-weight="900" letter-spacing="-3">GAIN.</text>

  <text x="60" y="565" fill="#4a6a2a" font-size="13" letter-spacing="2">Programmi militari. Disciplina assoluta.</text>
  <text x="60" y="588" fill="#4a6a2a" font-size="13" letter-spacing="2">Trasformazioni reali in 90 giorni.</text>

  <rect x="60" y="615" width="170" height="46" fill="#3a5a1a"/>
  <text x="145" y="643" text-anchor="middle" fill="#c8e88a" font-size="11" font-weight="bold" letter-spacing="3">INIZIA IL PROGRAMMA</text>
  <rect x="250" y="615" width="140" height="46" fill="none" stroke="#2a3a1a" stroke-width="1"/>
  <text x="320" y="643" text-anchor="middle" fill="#3a5a1a" font-size="11" letter-spacing="2">SCHEDA FREE</text>

  <!-- Right panel -->
  <rect x="620" y="110" width="540" height="600" fill="#0a0d07"/>
  <rect x="620" y="110" width="540" height="600" fill="url(#grid)"/>

  <!-- Dog tag decoration -->
  <rect x="850" y="140" width="80" height="110" rx="6" fill="none" stroke="#2a3a1a" stroke-width="1.5"/>
  <rect x="850" y="140" width="80" height="110" rx="6" fill="#111a0a"/>
  <text x="890" y="175" text-anchor="middle" fill="#3a5a1a" font-size="8" letter-spacing="2">IRON BUNKER</text>
  <text x="890" y="193" text-anchor="middle" fill="#c8e88a" font-size="9" font-weight="bold">ID: 00142</text>
  <text x="890" y="210" text-anchor="middle" fill="#3a5a1a" font-size="8">BERGAMO — IT</text>
  <line x1="890" y1="218" x2="890" y2="250" stroke="#2a3a1a" stroke-width="1"/>
  <circle cx="890" cy="140" r="5" fill="none" stroke="#2a3a1a" stroke-width="1.5"/>

  <!-- Stats boxes -->
  <rect x="650" y="290" width="230" height="120" fill="#111a0a" stroke="#2a3a1a" stroke-width="1"/>
  <text x="765" y="340" text-anchor="middle" fill="#c8e88a" font-size="42" font-weight="900">847</text>
  <text x="765" y="368" text-anchor="middle" fill="#3a5a1a" font-size="10" letter-spacing="3">ATLETI FORMATI</text>
  <rect x="900" y="290" width="230" height="120" fill="#111a0a" stroke="#2a3a1a" stroke-width="1"/>
  <text x="1015" y="340" text-anchor="middle" fill="#c8e88a" font-size="42" font-weight="900">90</text>
  <text x="1015" y="368" text-anchor="middle" fill="#3a5a1a" font-size="10" letter-spacing="3">GIORNI AL RISULTATO</text>

  <rect x="650" y="430" width="480" height="120" fill="#111a0a" stroke="#2a3a1a" stroke-width="1"/>
  <text x="660" y="468" fill="#3a5a1a" font-size="10" letter-spacing="3">PROGRAMMA ATTIVO</text>
  <text x="660" y="510" fill="#c8e88a" font-size="28" font-weight="900">OPERAZIONE MASSA</text>
  <text x="660" y="535" fill="#4a6a2a" font-size="12">12 settimane · 4 sessioni/week · Livello avanzato</text>

  <!-- Bottom bar -->
  <rect x="620" y="570" width="540" height="140" fill="#0d1509"/>
  <rect x="620" y="570" width="540" height="1" fill="#2a3a1a"/>
  <text x="660" y="615" fill="#2a3a1a" font-size="10" letter-spacing="4">MISSIONE</text>
  <text x="655" y="650" fill="#c8e88a" font-size="20" font-weight="900" letter-spacing="1">DIVENTARE</text>
  <text x="655" y="678" fill="#c8e88a" font-size="20" font-weight="900" letter-spacing="1">IMBATTIBILE.</text>
</svg>
